<svg class="main-svg" xmlns="http://www.w3.org/2000/svg" xmlns:xlink="http://www.w3.org/1999/xlink" width="566.9291338582677" height="188.9763779527559" style="" viewBox="0 0 566.9291338582677 188.9763779527559"><rect x="0" y="0" width="566.9291338582677" height="188.9763779527559" style="fill: rgb(255, 255, 255); fill-opacity: 1;"/><defs id="defs-e06b6f"><g class="clips"><clipPath id="clipe06b6fxyplot" class="plotclip"><rect width="498" height="110"/></clipPath><clipPath class="axesclip" id="clipe06b6fx"><rect x="57" y="0" width="498" height="188.9763779527559"/></clipPath><clipPath class="axesclip" id="clipe06b6fy"><rect x="0" y="20" width="566.9291338582677" height="110"/></clipPath><clipPath class="axesclip" id="clipe06b6fxy"><rect x="57" y="20" width="498" height="110"/></clipPath></g><g class="gradients"/><g class="patterns"/></defs><g class="bglayer"/><g class="layer-below"><g class="imagelayer"/><g class="shapelayer"/></g><g class="cartesianlayer"><g class="subplot xy"><g class="layer-subplot"><g class="shapelayer"/><g class="imagelayer"/></g><g class="minor-gridlayer"><g class="x"/><g class="y"/></g><g class="gridlayer"><g class="x"/><g class="y"/></g><g class="zerolinelayer"/><g class="layer-between"><g class="shapelayer"/><g class="imagelayer"/></g><path class="xlines-below"/><path class="ylines-below"/><g class="overlines-below"/><g class="xaxislayer-below"/><g class="yaxislayer-below"/><g class="overaxes-below"/><g class="overplot"><g class="xy" transform="translate(57,20)" clip-path="url(#clipe06b6fxyplot)"><g class="scatterlayer mlayer"><g class="trace scatter trace50b1a8" style="stroke-miterlimit: 2; opacity: 1;"><g class="fills"/><g class="errorbars"/><g class="lines"/><g class="points"><path class="point" transform="translate(28.65,82.17)" d="M3,0A3,3 0 1,1 0,-3A3,3 0 0,1 3,0Z" style="opacity: 1; stroke-width: 1px; fill: rgb(0, 0, 0); fill-opacity: 1; stroke: rgb(0, 0, 0); stroke-opacity: 1;"/><path class="point" transform="translate(28.65,63.14)" d="M3,0A3,3 0 1,1 0,-3A3,3 0 0,1 3,0Z" style="opacity: 1; stroke-width: 1px; fill: rgb(0, 0, 0); fill-opacity: 1; stroke: rgb(0, 0, 0); stroke-opacity: 1;"/><path class="point" transform="translate(85.42,65.18)" d="M3,0A3,3 0 1,1 0,-3A3,3 0 0,1 3,0Z" style="opacity: 1; stroke-width: 1px; fill: rgb(0, 0, 0); fill-opacity: 1; stroke: rgb(0, 0, 0); stroke-opacity: 1;"/><path class="point" transform="translate(109.82,57.71)" d="M3,0A3,3 0 1,1 0,-3A3,3 0 0,1 3,0Z" style="opacity: 1; stroke-width: 1px; fill: rgb(0, 0, 0); fill-opacity: 1; stroke: rgb(0, 0, 0); stroke-opacity: 1;"/><path class="point" transform="translate(144.63,59.07)" d="M3,0A3,3 0 1,1 0,-3A3,3 0 0,1 3,0Z" style="opacity: 1; stroke-width: 1px; fill: rgb(0, 0, 0); fill-opacity: 1; stroke: rgb(0, 0, 0); stroke-opacity: 1;"/><path class="point" transform="translate(165.56,48.19)" d="M3,0A3,3 0 1,1 0,-3A3,3 0 0,1 3,0Z" style="opacity: 1; stroke-width: 1px; fill: rgb(0, 0, 0); fill-opacity: 1; stroke: rgb(0, 0, 0); stroke-opacity: 1;"/><path class="point" transform="translate(224.58,36.3)" d="M3,0A3,3 0 1,1 0,-3A3,3 0 0,1 3,0Z" style="opacity: 1; stroke-width: 1px; fill: rgb(0, 0, 0); fill-opacity: 1; stroke: rgb(0, 0, 0); stroke-opacity: 1;"/><path class="point" transform="translate(245.13,23.05)" d="M3,0A3,3 0 1,1 0,-3A3,3 0 0,1 3,0Z" style="opacity: 1; stroke-width: 1px; fill: rgb(0, 0, 0); fill-opacity: 1; stroke: rgb(0, 0, 0); stroke-opacity: 1;"/><path class="point" transform="translate(264.18,47.85)" d="M3,0A3,3 0 1,1 0,-3A3,3 0 0,1 3,0Z" style="opacity: 1; stroke-width: 1px; fill: rgb(0, 0, 0); fill-opacity: 1; stroke: rgb(0, 0, 0); stroke-opacity: 1;"/><path class="point" transform="translate(283.7,48.19)" d="M3,0A3,3 0 1,1 0,-3A3,3 0 0,1 3,0Z" style="opacity: 1; stroke-width: 1px; fill: rgb(0, 0, 0); fill-opacity: 1; stroke: rgb(0, 0, 0); stroke-opacity: 1;"/><path class="point" transform="translate(365.09,39.7)" d="M3,0A3,3 0 1,1 0,-3A3,3 0 0,1 3,0Z" style="opacity: 1; stroke-width: 1px; fill: rgb(0, 0, 0); fill-opacity: 1; stroke: rgb(0, 0, 0); stroke-opacity: 1;"/><path class="point" transform="translate(383.3,38)" d="M3,0A3,3 0 1,1 0,-3A3,3 0 0,1 3,0Z" style="opacity: 1; stroke-width: 1px; fill: rgb(0, 0, 0); fill-opacity: 1; stroke: rgb(0, 0, 0); stroke-opacity: 1;"/><path class="point" transform="translate(401.83,45.81)" d="M3,0A3,3 0 1,1 0,-3A3,3 0 0,1 3,0Z" style="opacity: 1; stroke-width: 1px; fill: rgb(0, 0, 0); fill-opacity: 1; stroke: rgb(0, 0, 0); stroke-opacity: 1;"/><path class="point" transform="translate(421.52,49.89)" d="M3,0A3,3 0 1,1 0,-3A3,3 0 0,1 3,0Z" style="opacity: 1; stroke-width: 1px; fill: rgb(0, 0, 0); fill-opacity: 1; stroke: rgb(0, 0, 0); stroke-opacity: 1;"/><path class="point" transform="translate(439.71,50.91)" d="M3,0A3,3 0 1,1 0,-3A3,3 0 0,1 3,0Z" style="opacity: 1; stroke-width: 1px; fill: rgb(0, 0, 0); fill-opacity: 1; stroke: rgb(0, 0, 0); stroke-opacity: 1;"/></g><g class="text"/></g><g class="trace scatter trace5de933" style="stroke-miterlimit: 2; opacity: 1;"><g class="fills"/><g class="errorbars"/><g class="lines"><path class="js-line" d="M28.65,75.52L28.76,52.39L28.84,87.57L29.4,71.93L29.41,71.61L29.41,71.93L29.97,69.33L30.16,69.98L30.17,69.98L30.17,70.31L30.71,68.03L30.92,68.03L30.93,68.03L30.94,68.35L31.33,65.75L31.64,67.05L31.65,67.05L31.65,67.38L32.11,65.42L32.4,66.4L32.41,66.4L32.86,68.68L33.16,68.03L33.17,68.03L33.68,69.98L33.92,68.03L33.93,68.03L34.67,65.75L34.83,66.4L34.84,66.4L35.63,65.42L35.63,65.75L35.64,65.75L36.22,64.77L36.39,65.1L36.4,65.1L37.25,64.12L37.28,64.44L37.29,64.44L38.01,62.82L38.04,63.47L38.05,63.47L38.85,64.77L38.86,64.44L38.87,64.44L40.11,62.49L40.11,62.49L40.12,62.49L40.23,62.82L40.87,62.16L40.88,62.49L40.89,62.49L41.64,61.19L41.67,61.51L41.68,61.19L41.68,61.51L42.38,60.21L42.43,60.54L42.44,60.86L43.13,59.56L43.21,59.88L43.21,60.21L43.91,58.91L44.08,59.23L44.09,59.23L44.43,59.56L44.56,58.58L44.72,58.91L44.72,58.58L44.72,58.91L44.98,57.93L45.47,58.26L45.48,58.26L45.66,57.93L46.37,59.23L46.37,59.23L46.37,58.58L46.51,59.23L46.76,57.93L47.11,57.93L47.12,57.93L47.54,57.28L47.67,58.26L47.87,57.93L47.88,58.26L48.61,57.28L48.63,57.61L48.64,57.93L49.29,56.95L49.39,57.28L49.4,57.28L49.4,57.61L49.68,56.95L50.15,57.28L50.16,57.28L50.39,56.3L50.91,56.95L50.92,56.95L50.97,57.28L51.49,55.98L51.56,55.98L51.56,55.65L51.57,56.3L52.24,55L52.31,55.65L52.32,55.65L52.63,55L53.07,55.33L53.08,55.33L53.37,55.33L53.37,55.33L53.37,54.67L53.93,55.65L54.13,55.33L54.14,55.33L54.83,54.35L54.91,54.67L54.92,54.67L55.15,54.02L55.49,55L55.51,55L55.52,55L55.65,55.33L56.28,54.02L56.31,54.35L56.32,54.35L56.64,53.37L57.14,54.02L57.15,54.02L57.42,53.05L57.82,54.67L57.9,54.67L57.91,54.67L58.1,55L58.31,54.02L58.44,54.02L58.45,53.7L58.45,54.02L59.17,52.07L59.2,52.39L59.21,52.39L59.59,51.42L59.98,52.07L59.99,52.07L60.38,51.09L60.8,51.42L60.81,51.42L60.98,51.09L61.58,51.74L61.58,51.42L61.59,51.42L61.73,51.09L62.35,52.07L62.37,51.74L62.38,51.74L62.53,52.39L62.86,51.09L63.13,51.42L63.14,51.09L63.14,51.42L63.61,49.79L63.89,50.12L63.9,50.44L64.29,49.14L64.53,50.77L64.64,50.77L64.65,50.77L64.8,51.09L65.42,49.14L65.44,49.46L65.45,49.46L66.1,49.46L66.1,48.81L66.71,49.79L66.85,49.46L66.86,49.46L67.18,50.12L67.56,49.14L67.6,49.46L67.6,49.79L68.3,48.81L68.35,49.46L68.36,49.14L68.66,48.81L68.92,50.12L69.11,50.12L69.12,50.12L69.93,49.14L69.93,49.14L69.94,49.14L70.44,48.49L70.71,49.14L70.72,49.14L70.83,48.81L71.41,49.46L71.49,49.14L71.5,49.14L72.25,47.84L72.26,48.16L72.27,48.16L72.43,47.84L72.87,49.14L72.96,48.81L72.97,49.14L72.97,48.49L73.72,50.44L73.73,50.12L74.13,55.33L74.48,52.39L74.49,52.39L75.2,50.44L75.28,51.09L75.29,51.09L75.53,50.12L75.94,53.7L76.04,53.37L76.05,53.05L76.05,53.37L76.6,51.42L76.8,51.74L76.81,51.74L76.81,51.42L76.95,52.39L77.56,52.07L77.57,52.07L78.02,51.09L78.27,52.39L78.31,52.07L78.32,51.74L78.35,52.39L78.74,51.09L79.07,51.74L79.08,51.74L79.08,52.07L79.52,51.09L79.83,51.09L79.84,51.09L79.84,51.42L79.87,50.44L80.59,51.42L80.6,51.09L80.94,50.77L81.33,51.74L81.36,51.42L81.37,51.42L81.98,52.07L82.04,51.74L82.05,51.09L82.79,53.37L82.8,53.05L82.81,53.05L83.11,54.67L83.56,54.02L83.57,54.02L83.8,53.37L84.02,54.67L84.16,54.35L84.16,54.67L84.61,54.02L84.91,54.67L84.92,55L85.23,55.33L85.62,44.25L85.67,54.67L85.68,54.35L85.74,55.33L86.16,53.05L86.43,53.7L86.44,53.7L86.49,56.3L86.49,46.53L87.18,53.7L87.19,53.7L87.85,52.72L87.94,53.05L87.95,53.37L88.59,52.07L88.7,52.72L88.71,52.72L88.82,53.05L88.95,52.07L89.44,52.72L89.44,53.05L89.81,51.74L90.19,52.07L90.2,52.07L90.38,51.74L90.95,52.39L90.95,52.07L90.96,52.07L91.55,51.42L91.7,51.74L91.7,52.07L91.85,52.39L92.29,51.42L92.45,52.07L92.46,52.07L92.94,51.42L93.22,51.74L93.22,52.07L93.36,51.42L93.97,51.74L93.98,51.74L94.5,51.09L94.73,51.42L94.73,51.74L94.82,51.09L95.48,51.74L95.49,51.74L96.28,51.09L96.28,51.42L97.06,50.12L97.07,50.44L97.07,50.77L97.8,49.46L97.91,49.79L97.92,49.79L98.51,48.49L98.58,49.79L98.59,49.79L98.87,49.14L99.31,50.77L99.34,50.77L99.35,50.44L99.35,50.77L99.62,49.79L100.1,50.12L100.11,50.12L100.29,49.14L100.88,49.79L100.89,49.79L101.14,48.49L101.67,49.14L101.68,49.14L101.79,48.81L102.5,49.46L102.5,49.46L102.5,49.14L102.5,49.46L102.89,48.81L103.25,49.14L103.26,49.14L103.3,50.12L103.84,47.84L104.01,48.49L104.02,48.49L104.66,46.53L104.77,46.86L104.78,46.86L104.79,46.21L105.47,53.05L105.58,48.81L105.59,48.49L105.59,48.81L106.18,45.88L106.34,46.53L106.35,46.21L106.35,46.53L107.02,44.58L107.1,45.23L107.11,44.9L107.59,44.25L107.82,45.56L107.86,45.23L107.87,45.23L108.38,46.86L108.62,46.53L108.63,46.53L109.14,45.56L109.32,46.86L109.37,46.21L109.38,46.21L109.59,29.6L109.6,49.46L110.14,46.53L110.15,46.53L110.15,46.86L110.69,44.58L110.9,45.56L110.91,45.88L111.14,46.53L111.53,44.9L111.66,45.56L111.67,45.56L111.69,44.9L112.21,46.86L112.32,46.53L112.33,46.86L112.35,46.21L112.69,48.16L113.08,47.51L113.09,47.18L113.23,47.84L113.57,46.53L113.84,46.86L113.85,46.86L113.95,46.53L114.28,48.16L114.54,47.84L114.55,47.84L114.95,48.16L115.02,46.86L115.3,47.84L115.31,47.84L115.31,48.16L115.82,46.53L116.06,47.18L116.07,47.51L116.23,46.53L116.35,47.84L116.82,47.51L116.83,47.51L116.87,46.53L117.31,48.81L117.58,48.16L117.59,48.49L117.68,48.81L118.18,46.53L118.3,47.51L118.3,46.86L118.38,46.53L118.71,47.84L119.05,47.51L119.06,47.51L119.35,46.86L119.76,47.84L119.78,47.51L119.79,47.18L119.85,46.86L119.94,47.84L120.54,47.51L120.55,47.51L120.72,47.84L121.23,46.86L121.29,47.51L121.29,47.84L121.45,46.86L122.04,47.51L122.05,47.84L122.45,46.86L122.67,48.49L122.76,47.84L122.76,48.16L123.57,45.23L123.59,45.56L123.6,45.56L124.16,43.6L124.37,44.9L124.38,45.23L124.44,44.58L124.8,50.77L125.02,47.51L125.03,48.81L125.33,53.05L125.45,5.5L125.78,43.6L125.79,43.93L126.04,68.35L126.08,24.06L126.54,46.86L126.55,47.18L126.84,42.95L126.89,104.5L127.3,45.56L127.31,44.9L127.87,46.53L128.06,46.53L128.07,46.53L128.55,14.29L128.77,51.42L128.82,51.42L128.83,51.09L128.83,51.42L129.54,46.86L129.58,47.18L129.59,47.18L130.1,45.88L130.19,47.51L130.33,47.51L130.34,47.51L131.06,45.56L131.09,46.21L131.1,46.53L131.59,44.9L131.85,45.56L131.86,45.88L131.98,44.25L132.37,47.51L132.61,46.86L132.62,46.86L132.69,45.88L133.35,48.49L133.37,48.49L133.38,48.49L133.53,47.84L134.04,49.14L134.15,48.81L134.16,48.16L134.75,49.79L134.91,49.79L134.92,49.46L135.25,50.44L135.52,48.81L135.67,49.46L135.68,49.14L135.68,49.79L136.35,46.86L136.43,47.51L136.44,47.18L136.49,46.53L137.02,49.79L137.19,49.79L137.2,49.79L137.82,47.51L137.95,48.16L137.96,48.49L138.04,47.84L138.69,50.12L138.71,49.79L138.72,50.12L138.86,49.46L139.13,50.77L139.47,50.12L139.48,50.12L139.48,50.44L139.89,46.53L140.23,48.81L140.24,48.49L140.51,49.79L140.99,49.79L141,49.79L141.12,49.14L141.29,50.12L141.68,49.46L141.68,49.14L141.74,48.16L141.92,49.79L142.43,49.79L142.44,49.79L142.93,44.9L143.19,46.86L143.2,46.53L143.26,46.21L143.31,47.51L143.95,47.18L143.96,47.18L144,45.23L144.73,49.14L144.75,48.81L144.76,48.81L144.78,48.49L145.5,50.12L145.54,49.79L145.55,49.79L145.55,49.14L145.63,50.12L146.3,49.14L146.31,49.79L146.44,49.14L146.93,50.12L147.06,49.46L147.07,49.79L147.42,48.81L147.82,49.46L147.83,49.46L147.91,49.79L148.42,48.49L148.58,49.46L148.59,49.46L148.62,49.79L149.3,48.16L149.34,48.81L149.35,49.14L149.95,46.86L150.1,47.51L150.11,47.51L150.84,45.88L150.86,46.53L150.87,46.86L151.2,45.88L151.62,46.53L151.63,46.53L151.63,46.21L152.2,50.77L152.38,50.77L152.39,50.77L152.95,47.18L153.14,48.16L153.15,47.51L153.86,48.81L153.9,48.81L153.91,48.81L153.96,48.16L154.38,50.12L154.66,49.79L154.67,49.79L154.67,50.12L155.24,47.84L155.42,48.49L155.43,48.49L156.08,46.86L156.18,47.84L156.19,47.51L156.23,47.18L156.91,49.14L156.94,48.81L156.95,48.81L157.41,49.46L157.49,48.16L157.69,48.49L157.7,48.16L157.82,47.84L158.34,49.14L158.45,49.14L158.46,49.14L158.63,49.46L159.25,47.84L159.25,48.49L159.26,48.49L159.69,49.14L159.96,47.84L160.01,49.14L160.02,49.14L160.07,48.49L160.43,49.79L160.75,49.46L160.76,49.79L161.06,48.49L161.51,49.46L161.52,49.46L161.52,49.79L161.89,48.49L162.27,49.79L162.28,49.46L162.3,49.79L163.03,48.49L163.04,49.14L163.05,49.14L163.82,47.51L163.82,48.16L164.01,47.18L164.35,49.46L164.54,48.81L164.55,48.81L165.16,51.42L165.29,22.76L165.3,29.6L165.31,30.25L165.46,52.39L166.06,47.84L166.07,47.51L166.12,47.84L166.58,45.88L166.79,46.53L166.79,45.88L167.52,46.86L167.55,46.53L167.56,46.53L167.56,46.86L167.78,45.56L168.31,46.53L168.32,46.53L168.32,46.86L168.82,45.23L169.07,46.21L169.08,46.21L169.82,44.25L169.83,44.9L169.84,44.9L169.84,45.23L170,43.93L170.59,44.25L170.6,44.25L170.86,44.58L171.13,43.28L171.29,43.93L171.3,43.6L171.32,43.28L171.9,44.9L172.05,44.58L172.06,44.58L172.91,48.49L172.92,48.16L172.93,47.84L172.93,47.51L173.52,48.81L173.68,48.81L173.69,48.81L173.86,48.16L174.13,49.79L174.41,49.79L174.42,49.79L175.08,47.84L175.17,48.49L175.18,48.49L175.18,48.81L175.67,46.86L175.93,47.18L175.94,46.86L175.97,46.53L176.64,48.81L176.69,48.81L176.7,48.81L177.02,50.12L177.44,47.84L177.47,48.49L177.48,48.49L177.81,47.18L178.11,48.81L178.22,48.49L178.22,48.81L178.59,49.46L178.81,47.84L178.97,48.16L178.98,48.16L179.05,47.51L179.48,49.46L179.68,49.46L179.69,49.46L179.71,49.79L180.27,48.81L180.42,49.46L180.43,49.79L180.96,48.49L181.18,49.79L181.19,49.79L181.87,48.81L181.94,49.46L181.95,49.46L182.88,45.56L182.89,46.21L182.9,46.21L182.91,45.56L183.58,49.46L183.65,48.81L183.66,49.46L183.94,50.12L184.47,46.86L184.53,47.51L184.54,47.51L184.82,45.56L185.29,45.88L185.3,46.21L185.45,45.23L186.05,45.88L186.06,46.21L186.06,45.23L186.81,45.88L186.82,45.88L186.84,46.21L187.45,44.9L187.59,45.56L187.6,45.56L187.63,44.9L188.25,46.21L188.35,45.88L188.36,45.88L189.1,44.9L189.12,45.23L189.13,45.56L189.23,45.88L189.39,44.9L189.88,45.23L189.89,45.56L190.09,45.88L190.51,44.9L190.63,45.23L190.64,45.56L190.85,45.88L191.05,44.58L191.39,45.88L191.4,45.56L191.95,44.25L192.15,45.23L192.16,45.23L192.19,44.9L192.91,49.46L192.92,49.14L193.56,52.72L193.67,52.72L193.68,52.72L193.88,52.07L194.28,53.37L194.41,53.05L194.41,53.37L194.73,52.39L195.13,54.02L195.16,53.7L195.17,53.7L195.91,49.46L195.92,50.12L195.93,50.12L196.07,48.16L196.27,50.77L196.31,50.77L196.31,51.09L196.33,50.12L196.9,53.7L197.06,53.37L197.07,53.37L197.48,51.74L197.81,53.7L197.81,53.37L197.82,53.7L197.82,53.05L198.33,55.33L198.57,54.67L198.58,54.67L198.83,47.18L199.49,48.16L199.5,48.49L199.5,48.16L199.81,50.44L200.25,49.46L200.26,49.46L200.26,49.14L200.93,50.77L201.01,50.44L201.02,50.44L201.16,51.09L201.7,49.14L201.77,49.79L201.78,50.12L202.43,47.18L202.53,47.84L202.54,47.84L202.59,47.51L203.02,49.46L203.29,47.84L203.3,47.84L203.44,46.53L203.91,50.12L204.09,49.46L204.1,49.14L204.19,48.81L204.45,50.44L204.85,50.12L204.86,50.44L205.43,49.14L205.61,49.46L205.62,49.79L205.84,48.81L205.93,50.12L206.37,49.46L206.38,49.46L206.38,49.79L206.86,47.84L207.13,48.81L207.14,48.81L207.14,49.14L207.6,47.51L207.89,48.49L207.9,48.49L207.9,48.81L208.49,47.18L208.65,48.49L208.66,48.16L208.82,47.18L209.41,48.81L209.41,48.49L209.42,48.49L209.55,48.81L210.15,46.53L210.39,47.51L210.4,47.51L210.81,46.21L210.99,48.81L211.1,48.16L211.1,48.49L211.79,46.21L211.88,47.18L211.88,47.51L212.27,42.95L212.63,48.49L212.63,48.16L212.64,48.49L212.66,47.84L213.1,50.77L213.39,50.77L213.4,50.77L213.47,50.44L213.49,51.42L214.15,51.09L214.16,51.09L214.54,50.12L214.74,51.74L214.92,50.77L214.93,50.77L215.46,47.18L215.68,49.14L215.69,49.14L215.91,48.81L216.29,51.42L216.38,50.77L216.39,51.09L216.41,51.42L216.45,50.44L217.14,51.09L217.15,51.09L217.51,50.12L217.55,51.42L217.9,50.77L217.91,51.09L217.92,50.44L218.66,54.02L218.66,53.7L218.67,53.7L218.67,53.37L218.94,55.33L219.42,53.7L219.43,53.7L220.14,50.77L220.23,51.42L220.24,51.42L220.58,50.44L220.88,52.07L220.99,51.74L221,51.74L221.03,52.07L221.72,50.12L221.78,50.77L221.79,50.77L222.61,47.84L222.66,48.49L222.67,48.81L222.85,49.46L223.2,46.53L223.42,49.14L223.43,49.14L223.76,58.26L224.03,43.6L224.18,47.18L224.19,47.18L224.71,50.12L224.94,49.79L224.95,49.79L224.95,49.14L225.08,50.44L225.7,50.12L225.71,50.12L226.52,48.81L226.52,49.46L226.53,49.46L227.04,48.16L227.28,48.81L227.29,48.49L227.29,48.81L227.82,47.18L228.04,48.16L228.05,47.84L228.06,48.49L228.66,46.21L228.8,46.86L228.81,46.53L229.27,45.23L229.56,45.56L229.57,45.88L229.65,44.9L230.03,46.21L230.32,46.21L230.33,46.21L230.48,44.58L231.08,45.23L231.09,45.23L231.31,44.25L231.77,47.51L231.77,47.51L231.78,47.51L232.51,51.09L232.53,51.09L232.54,51.09L232.56,50.44L232.89,52.39L233.26,52.07L233.27,52.07L233.47,51.09L233.73,52.72L234.02,52.07L234.03,52.07L234.54,52.39L234.71,50.77L234.74,51.09L234.74,50.77L234.8,51.09L235.33,48.16L235.41,48.49L235.42,48.49L235.45,47.18L236.17,52.72L236.17,52.39L236.18,52.72L236.32,52.07L236.52,53.37L236.92,53.05L236.92,53.37L237.65,52.39L237.66,53.05L238.08,49.79L238.41,51.42L238.42,51.42L238.45,51.74L238.96,47.84L239.17,47.84L239.18,47.51L239.28,46.86L239.55,48.49L239.93,48.49L239.94,48.49L240.02,47.84L240.14,49.14L240.65,49.14L240.66,49.14L240.78,49.46L241.33,47.84L241.41,47.84L241.42,47.84L242.08,45.23L242.23,45.56L242.23,45.88L242.23,45.56L242.98,46.86L242.99,46.53L243.51,21.78L243.65,51.09L243.74,49.79L243.75,49.79L243.76,50.12L244.3,46.53L244.41,47.18L244.42,46.53L244.42,47.18L244.49,45.23L245.17,46.21L245.18,46.21L245.22,46.86L245.85,44.58L245.96,44.9L245.96,45.56L246.33,43.93L246.71,44.9L246.72,44.58L246.79,45.23L247.28,43.93L247.47,44.25L247.48,44.58L247.52,43.28L248.23,43.6L248.24,43.6L248.25,43.93L248.94,41.97L248.99,42.3L249,42.3L249.08,41.65L249.72,44.58L249.75,44.58L249.76,44.9L249.76,44.25L250.01,45.88L250.51,44.58L250.52,44.58L250.52,44.9L250.87,42.63L251.27,43.6L251.28,43.6L251.77,42.3L251.97,44.25L252.02,43.6L252.02,44.25L252.03,43.6L252.66,45.88L252.77,45.56L252.78,45.56L253.13,44.9L253.46,46.86L253.51,46.86L253.52,46.86L253.89,47.18L254.26,45.88L254.27,46.53L254.28,46.53L254.94,44.58L255.03,45.88L255.04,45.88L255.27,44.25L255.85,48.49L255.85,48.16L255.86,48.16L256.6,45.88L256.69,46.86L256.7,46.86L256.83,46.53L257.1,48.81L257.39,48.81L257.4,48.81L257.72,44.9L258.15,46.21L258.16,46.53L258.27,45.56L258.91,48.16L258.91,47.84L258.92,47.84L258.92,47.51L259.27,49.46L259.67,48.81L259.68,48.81L260.12,46.21L260.43,46.53L260.44,46.53L260.44,46.86L261.19,43.93L261.19,44.58L261.2,44.58L261.2,44.9L261.66,34.48L261.95,41L261.96,41.32L261.99,41L262.61,43.28L262.64,43.28L262.65,43.28L262.67,42.63L262.89,43.93L263.38,43.6L263.39,43.93L263.71,42.95L263.74,44.9L264.12,44.58L264.13,44.58L264.32,44.9L264.48,43.6L264.88,44.25L264.89,44.25L265.07,44.58L265.45,43.28L265.64,44.25L265.65,44.25L265.89,42.3L266.01,44.9L266.4,44.58L266.41,44.58L266.45,44.9L267.18,43.28L267.18,43.6L267.19,43.6L267.26,43.93L267.92,42.63L267.96,42.95L267.96,43.28L268.3,41.97L268.71,42.3L268.72,42.3L268.88,42.63L269.34,41L269.45,41.65L269.46,41.65L269.81,41L270.02,42.63L270.04,42.63L270.05,42.63L270.08,42.3L270.38,44.25L270.78,43.28L270.79,43.28L271.16,41.97L271.4,43.93L271.46,43.93L271.46,44.25L271.48,43.93L271.68,45.56L272.17,45.23L272.18,45.23L272.84,44.25L272.93,45.56L272.93,45.23L272.94,45.23L272.94,45.56L273.38,44.25L273.69,44.9L273.7,44.9L273.8,45.23L274.39,42.63L274.45,43.28L274.46,43.28L274.73,42.63L274.95,44.25L275.02,44.25L275.02,44.58L275.05,43.93L275.27,45.23L275.77,44.25L275.78,44.25L276.1,43.28L276.42,44.58L276.53,44.25L276.53,44.58L276.63,44.9L277.33,43.28L277.33,43.93L277.76,42.95L277.92,44.25L278.08,43.93L278.08,44.25L278.25,43.6L278.83,44.58L278.83,44.58L278.84,44.25L278.84,43.6L278.85,44.58L279.59,44.25L279.6,44.25L279.72,43.28L280.35,43.28L280.36,43.6L280.37,43.93L281,41.97L281.11,42.63L281.12,42.3L281.2,42.63L281.88,41L281.89,41.65L281.9,41.97L282.28,41L282.33,42.3L282.65,41.97L282.66,41.65L282.72,41.97L283.15,40.35L283.39,41L283.4,41L283.61,41.32L284.12,40.35L284.15,41L284.16,41.32L284.53,40.35L284.91,41L284.92,41L285.42,41.32L285.6,40.02L285.66,40.67L285.67,40.67L285.95,35.46L286.37,42.3L286.42,41.97L286.43,41.97L286.49,41.65L287.15,42.63L287.2,42.3L287.21,42.3L287.72,41.32L287.96,41.97L287.97,42.3L288.47,41L288.72,41.65L288.73,41.65L288.82,41L289.44,43.6L289.48,43.6L289.49,43.6L289.56,43.93L290.45,41.32L290.5,41.97L290.51,41.97L290.59,41L291.08,42.95L291.26,42.95L291.27,42.95L291.32,43.28L291.97,41.32L292.06,41.97L292.06,42.3L292.1,41.65L292.65,42.95L292.81,42.63L292.82,42.63L292.85,42.95L293.5,41.97L293.57,42.63L293.58,42.63L293.9,43.28L293.97,41.97L294.33,42.63L294.34,42.63L294.37,41.97L295.09,42.95L295.09,42.95L295.09,42.3L295.1,42.95L295.31,41.97L295.84,42.63L295.85,42.95L295.92,41.97L296.6,42.63L296.61,42.63L296.67,42.95L297.34,41.97L297.36,42.63L297.37,42.63L297.66,43.28L298.02,41.97L298.11,42.63L298.12,42.63L298.17,42.95L298.74,42.3L298.86,42.95L298.87,42.95L299.2,43.28L299.55,41.97L299.58,42.63L299.59,42.95L299.89,43.28L300.2,41.32L300.34,41.97L300.35,41.97L300.53,41.32L301.07,44.25L301.1,44.25L301.11,44.25L301.23,44.58L301.72,41.97L301.86,42.63L301.87,42.63L301.96,41L302.62,41.65L302.63,41.65L302.64,41L303.31,42.63L303.38,42.3L303.39,42.3L303.55,41.65L303.98,42.63L304.14,42.3L304.15,42.3L304.35,41.32L304.47,42.63L304.9,42.3L304.91,41.97L304.91,42.3L304.95,41.65L305.66,42.3L305.67,42.3L305.9,41.32L306.42,41.97L306.43,41.97L306.62,41.32L306.85,42.63L307.18,42.3L307.19,42.3L307.71,41.32L307.94,41.97L307.95,42.3L307.95,42.63L308.35,41.32L308.7,41.97L308.71,41.97L309.01,41.32L309.15,42.63L309.47,41.65L309.47,41.97L309.52,41L309.75,42.63L310.22,42.3L310.23,42.3L310.51,40.67L310.96,43.93L310.98,43.93L310.99,43.93L311.68,42.63L311.74,42.95L311.75,42.95L312.06,42.3L312.51,42.63L312.51,42.95L312.74,42.3L312.86,43.28L313.18,43.28L313.19,43.28L313.62,42.3L313.93,43.6L313.94,43.28L313.95,43.28L314.27,42.3L314.55,44.58L314.7,44.58L314.71,44.58L315.47,42.63L315.5,42.95L315.51,42.95L316.15,41.97L316.26,42.95L316.27,42.63L316.27,42.95L316.6,42.3L317.02,42.63L317.03,42.63L317.92,42.95L317.92,42.95L317.92,43.28L318.06,42.63L318.67,42.95L318.68,43.28L318.87,43.6L319.26,42.95L319.43,43.28L319.44,43.28L319.94,41.97L320.23,43.28L320.24,43.28L320.36,42.95L320.57,44.25L320.75,44.25L320.76,44.25L321.58,41.97L321.78,42.3L321.78,42.63L321.88,41.97L322.23,42.95L322.53,42.95L322.54,42.95L323.31,42.3L323.31,42.63L323.41,41.97L323.75,42.95L324.06,42.95L324.07,42.95L324.57,41.97L324.82,42.3L324.83,42.3L324.9,41.65L325.27,42.95L325.51,42.63L325.51,42.95L326.27,41.97L326.28,42.3L326.29,42.3L326.88,41.65L327.04,42.3L327.05,42.3L327.59,41.65L327.81,41.97L327.81,42.3L327.98,41.65L328.56,41.97L328.57,42.3L328.69,41.32L329.32,41.65L329.33,41.65L329.44,41.32L330.08,42.3L330.1,41.97L330.11,41.97L330.22,41L330.58,43.6L330.68,43.6L330.68,43.93L330.68,43.6L331.13,44.9L331.43,44.9L331.44,44.58L331.81,45.23L332.09,42.95L332.14,43.28L332.15,43.28L332.3,42.95L332.79,44.9L332.9,44.9L332.91,44.58L332.91,44.9L333.32,43.28L333.66,43.6L333.67,43.6L333.91,44.25L334.39,43.28L334.41,43.93L334.41,44.25L334.43,43.6L335.05,44.9L335.16,44.9L335.17,44.9L335.5,43.93L335.8,45.23L335.92,44.9L335.93,44.9L335.95,44.25L336.18,45.23L336.67,45.23L336.68,45.23L337.19,45.56L337.41,44.9L337.42,45.56L337.43,45.56L337.77,44.9L338.02,45.88L338.18,45.56L338.18,45.88L338.53,44.9L338.86,46.21L338.93,45.56L338.94,46.21L339.64,44.9L339.69,45.56L339.7,45.23L339.7,45.56L340.07,43.93L340.45,44.25L340.46,43.93L340.46,44.58L341.21,44.58L341.22,44.58L341.24,43.93L341.97,44.58L341.98,44.58L342.3,43.93L342.73,44.58L342.74,44.58L343.11,43.6L343.49,44.25L343.5,44.25L343.5,43.93L343.56,44.58L344.25,44.25L344.26,44.25L344.26,44.58L344.57,43.6L345.01,44.25L345.02,44.58L345.74,43.28L345.77,43.93L345.78,43.93L345.78,44.25L346.13,43.6L346.53,43.93L346.54,43.93L347.33,43.6L347.33,43.93L347.34,43.93L347.97,42.95L348.09,43.28L348.1,43.28L348.36,42.63L349.07,45.23L349.07,45.23L349.08,44.9L349.37,45.88L349.56,43.93L349.83,43.93L349.84,43.93L350.02,42.95L350.59,43.6L350.6,43.28L350.63,42.95L351.14,44.25L351.35,43.93L351.36,43.93L351.56,44.25L351.84,43.6L352.07,43.93L352.08,44.25L352.62,43.28L352.83,43.93L352.84,43.93L353.01,43.28L353.42,45.23L353.51,45.23L353.52,45.23L353.96,45.56L354.07,44.58L354.19,44.9L354.19,44.58L354.23,44.9L354.88,43.6L354.93,44.25L354.94,44.25L355.09,43.93L355.37,46.53L355.45,46.53L355.45,46.86L356.33,47.84L356.33,47.51L356.33,47.84L356.73,46.86L357.08,47.51L357.09,46.86L357.09,47.51L357.84,47.18L357.85,47.18L357.85,47.51L358.29,46.53L358.6,47.18L358.61,47.18L358.72,47.51L358.98,43.6L359.03,43.6L359.04,43.6L359.05,43.93L359.78,41.65L359.79,41.97L359.8,41.97L360.23,41.65L360.34,42.63L360.52,42.63L360.53,42.63L360.56,41.97L361.07,43.6L361.28,43.28L361.29,43.28L361.36,42.63L361.99,44.58L362.04,43.28L362.05,43.28L362.12,43.93L362.5,42.63L362.8,42.63L362.81,42.63L362.88,42.95L363.28,41.65L363.55,42.3L363.56,42.3L363.71,42.63L364.04,41.65L364.32,41.97L364.33,41.97L364.73,41.32L365.1,42.63L365.1,42.63L365.11,42.63L365.19,42.95L365.79,41.97L365.89,42.3L365.9,42.3L365.9,42.63L366.18,41.65L366.65,41.97L366.66,41.65L367.2,41.97L367.25,40.67L367.37,41.32L367.38,41.32L367.61,41.65L367.92,40.35L368.09,41L368.1,41L368.11,41.32L368.31,40.02L368.82,40.35L368.82,40.02L368.91,39.69L369.66,43.28L369.66,43.28L369.67,43.28L369.77,42.63L369.95,43.6L370.42,43.28L370.42,43.6L370.52,43.28L370.8,44.25L371.11,44.25L371.12,44.25L371.55,43.6L371.67,44.58L371.87,44.25L371.88,44.25L372.82,41.97L372.82,41.97L372.82,42.3L373.01,41.32L373.57,43.28L373.57,42.95L373.58,42.95L374.15,43.93L374.33,43.6L374.34,43.93L374.51,43.28L374.99,44.25L375.09,43.93L375.1,43.93L375.9,41.65L375.9,41.97L375.91,42.3L376.39,40.67L376.66,41.97L376.67,41.97L376.68,41.32L377.14,42.95L377.42,41.97L377.43,42.63L377.59,42.95L378.1,41.97L378.19,42.63L378.2,42.63L378.53,41.97L378.83,43.28L378.95,42.63L378.96,42.63L378.96,42.95L379.24,41.32L379.71,41.65L379.72,41.65L379.89,41L380.47,41.97L380.48,41.65L380.5,41.32L380.89,42.95L381.17,42.63L381.18,42.63L381.19,42.95L381.37,41.97L381.92,42.63L381.93,42.3L382.19,41.97L382.72,43.28L382.74,42.95L382.75,42.95L383.07,41.32L383.5,43.28L383.5,43.28L383.51,42.95L383.92,46.86L384.26,44.9L384.27,44.9L384.59,45.23L385.05,42.3L385.11,43.28L385.11,43.6L385.8,40.67L385.86,41.65L385.87,41.32L385.98,41.97L386.11,40.35L386.62,40.67L386.63,40.67L387.3,39.37L387.34,41L387.4,40.02L387.4,40.35L387.47,39.37L387.7,41L388.11,39.69L388.12,39.69L388.51,41L388.69,39.04L388.84,39.37L388.85,39.37L389.66,43.93L389.73,43.6L389.74,43.6L389.76,43.28L390.27,45.23L390.49,44.9L390.5,44.9L390.5,44.25L391.12,45.23L391.25,44.9L391.26,44.9L391.4,45.23L392,43.93L392.02,44.58L392.03,44.58L392.7,41L392.78,41.97L392.79,41.97L393.42,39.69L393.54,40.35L393.55,40.35L393.55,41L394.1,39.69L394.3,40.35L394.31,40.35L394.52,39.69L395.08,41L395.08,41L395.09,41L395.24,40.67L395.74,41.97L395.8,41.65L395.81,41.65L395.86,41.97L396.34,40.67L396.56,41.65L396.57,41.65L396.6,40.67L397.32,41L397.33,41L398.03,40.35L398.08,41L398.09,41L398.12,40.35L398.45,41.65L398.84,41.65L398.85,41.65L399.48,40.67L399.62,41.32L399.62,41.65L399.93,38.07L400.26,45.23L400.37,45.23L400.38,45.23L400.59,43.6L401.13,43.93L401.14,43.93L401.72,41.65L401.89,42.95L401.9,42.63L402.01,41.97L402.56,43.28L402.59,42.63L402.59,42.3L402.8,43.28L403.28,41.65L403.34,42.3L403.35,41.97L403.8,42.95L404.1,42.63L404.11,42.63L404.31,42.3L404.87,42.95L404.87,42.63L404.87,42.95L405.35,41.65L405.62,42.3L405.63,42.3L406.26,41.32L406.39,41.97L406.4,41.97L407.19,41L407.2,41.32L407.23,40.67L407.91,41.65L407.95,41.65L407.96,41.65L408.69,40.35L408.75,41L408.75,41.32L408.75,41L409.48,44.9L409.5,44.9L409.51,44.9L410.37,45.88L410.44,45.56L410.45,45.56L410.51,44.9L411.2,45.88L411.2,45.56L411.21,45.56L411.21,45.88L411.94,44.25L411.96,44.58L411.97,44.58L412.66,42.3L412.72,42.63L412.73,42.63L413.37,41.32L413.56,41.97L413.57,42.3L413.73,41.65L414.32,42.3L414.33,42.3L414.51,41.65L415.08,41.97L415.09,42.3L415.22,42.63L415.51,41.65L415.84,42.3L415.85,42.3L415.93,41.65L416.6,42.3L416.61,42.3L416.64,41.65L416.79,42.63L417.36,41.97L417.36,42.3L417.71,41.65L417.94,42.63L418.11,42.63L418.12,42.63L418.24,42.95L418.78,41.65L418.88,42.3L418.89,42.3L418.98,42.63L419.47,41.65L419.64,42.3L419.65,41.97L420.03,43.28L420.4,43.28L420.41,43.28L420.95,43.6L421.14,42.95L421.16,43.28L421.17,43.28L421.43,42.63L421.92,43.28L421.93,43.28L422.02,41.97L422.39,43.6L422.68,43.28L422.69,43.28L423.31,42.63L423.45,42.95L423.45,43.28L424.12,42.3L424.27,42.95L424.28,42.95L424.41,42.3L424.84,43.28L424.97,42.63L424.97,42.3L425.06,42.95L425.13,41.97L425.72,42.3L425.73,42.3L425.76,42.95L425.98,41.65L426.48,41.97L426.49,41.97L426.97,42.63L427.26,41.65L427.26,41.65L427.26,41.97L428.08,41L428.1,41.32L428.1,41.65L428.4,40.02L428.78,42.95L428.85,42.95L428.86,42.95L429.76,45.56L429.76,45.56L429.77,45.56L429.77,45.23L429.87,45.88L430.52,45.56L430.53,45.88L430.57,44.9L431.28,45.23L431.29,45.23L432.03,43.28L432.04,43.6L432.05,43.6L432.05,43.93L432.74,41.65L432.8,42.3L432.81,41.97L432.81,41.65L433.27,42.63L433.56,42.63L433.57,42.63L433.75,43.28L434.21,41.97L434.31,42.63L434.32,42.95L434.57,41.65L435.07,42.3L435.08,42.3L435.08,42.63L435.24,41.65L435.83,42.63L435.84,42.63L436.61,41.65L436.61,41.97L436.62,41.97L436.94,42.3L437.13,41.65L437.38,41.97L437.39,41.97L437.88,41L438.15,41.65L438.16,41.65L438.81,40.02L438.91,40.67L438.92,40.67L438.97,41L438.98,39.69L439.66,41L439.67,41L440.08,41.65L440.12,40.35L440.42,41L440.43,41L440.45,40.35L441.18,40.67L441.19,40.67L441.19,40.35L441.38,41L441.94,41L441.95,41L442.01,40.67L442.73,41.32L442.73,41.32L442.73,41L443.32,41.65L443.33,40.67L443.49,41.32L443.5,41.32L443.66,40.67L444.01,41.97L444.26,41L444.26,41.32L444.81,42.3L445.1,40.35L445.1,40.35L445.11,40.35L445.83,39.37L445.86,39.69L445.87,39.69L446.61,38.07L446.65,38.72L446.66,38.72L446.98,39.37L447.18,38.07L447.42,39.04L447.42,38.72L447.71,38.07L448.18,40.02L448.19,39.37L448.2,39.37L448.26,39.04L448.77,41.97L448.87,41.97L448.88,42.3L448.9,41.97L449.52,43.93L449.63,43.6L449.64,43.6L449.98,44.58L450.1,42.63L450.14,42.63L450.14,42.3L450.15,42.63L450.56,40.35L450.83,40.35L450.84,40.35L450.95,40.02L451.38,41L451.59,40.35L451.6,40.35L451.66,40.02L452.19,41.65L452.35,41L452.36,41.32L452.44,41.65L452.76,40.35L453.11,41L453.12,41L453.16,41.32L453.44,40.35L453.87,40.67L453.88,40.67L453.88,41L454.19,40.35L454.63,40.67L454.64,40.67L454.93,40.35L455.4,41L455.4,41L455.41,41L455.61,40.35L456.32,41.65L456.32,41.65L456.32,41.32L457.08,41.97L457.08,41.65L457.09,41.65L457.09,41.97L457.1,41.32L457.84,41.32L457.85,41.32L457.85,41.65L458.49,39.69L458.6,40.02L458.61,40.02L458.69,40.35L459.24,38.72L459.36,39.37L459.37,39.37L459.37,39.69L459.6,39.04L460.12,39.69L460.13,39.69L460.28,39.37L460.62,41.32L460.99,40.35L460.99,40.02L461.47,41.32L461.74,41L461.75,41L461.91,41.32L462.48,40.35L462.5,41L462.51,41L463.26,39.69L463.27,40.35L463.59,40.02L464,40.67L464.02,40.35L464.03,40.35L464.22,41L464.81,40.02L464.81,40.02L464.81,40.35L465.37,39.37L465.56,39.69L465.57,39.69L465.78,40.02L466.01,38.72L466.32,38.72L466.33,38.72L466.8,37.74L466.99,40.02L467.09,39.04L467.1,39.04L467.57,38.07L467.87,38.72L467.88,38.72L467.9,38.07L468.49,41.97L468.53,41.97L468.54,41.97L469.03,44.58L469.29,44.58L469.3,44.58L469.42,43.93L469.58,44.9L470.05,44.58L470.05,44.9L470.85,42.95L470.85,43.28L470.86,43.28L471.57,40.02L471.73,41.97L471.73,42.3L471.73,41.97L472.33,44.9L472.48,44.9L472.49,44.9L472.65,45.23L473.05,44.58L473.3,44.9L473.31,44.9L473.45,45.23L474.23,41L474.31,41.97L474.32,41.97L474.38,40.67L475.07,41.32L475.08,41L475.17,40.02L475.56,41.65L475.83,41L475.84,40.67L475.87,40.35L475.99,41.97L476.59,41.32L476.6,41.32L476.6,41.65L476.97,40.67L477.35,41L477.36,40.67L477.36,41L478.07,39.04L478.11,39.37L478.12,39.37L478.25,39.04L478.83,40.35L478.87,40.35L478.88,40.35L478.9,40.02L479.22,41.32L479.63,41L479.64,41L480.45,41.97L480.45,41.97L480.46,41.97L480.71,41L481,42.3L481.2,41.97L481.21,41.97L481.32,42.63L481.86,40.67L481.99,41L481.99,41.32L482.66,41.65L482.7,40.02L482.71,40.35L482.72,40.35L483.18,41.65L483.45,41L483.45,40.67L483.59,41.65L483.84,40.02L484.2,41L484.21,41L484.34,41.65L484.97,40.35L484.97,40.67L484.98,40.67L484.98,41L485.29,39.69L485.73,40.35L485.74,40.35L485.76,40.67L486.23,39.37L486.49,39.69L486.5,39.69L486.56,40.67L487.04,38.39L487.25,39.37L487.26,39.37L487.62,39.04L488.18,42.3L488.18,42.3L488.18,41.97L488.97,45.56L488.97,45.56L488.98,45.23L489.19,45.88L489.61,44.9L489.73,45.56L489.74,45.56L489.74,45.88L490.44,44.9L490.49,44.9L490.5,44.9L491.35,41.65L491.35,41.65L491.36,41.65L492.1,40.67L492.13,41L492.13,41.32L492.85,40.35L492.88,40.67L492.89,41L493.24,40.02L493.64,40.67L493.65,41L493.88,39.69L494.4,40.67L494.41,40.67L494.41,41L494.63,40.02L495.16,40.35L495.17,40.35L495.73,39.69L495.88,40.67L495.92,40.35L495.93,40.35L495.93,40.67L496.05,39.69L496.68,40.35L496.69,40.35L496.85,40.67L497.48,39.04L497.49,39.69L497.5,40.02L497.51,39.37L497.99,41.32L498,40.02" style="vector-effect: none; fill: none; stroke: rgb(49, 99, 149); stroke-opacity: 1; stroke-width: 2px; opacity: 1;"/></g><g class="points"/><g class="text"/></g></g></g></g><path class="xlines-above crisp" d="M55,131H557M55,19H557" style="fill: none; stroke-width: 2px; stroke: rgb(36, 36, 36); stroke-opacity: 1;"/><path class="ylines-above crisp" d="M56,20V130M556,20V130" style="fill: none; stroke-width: 2px; stroke: rgb(36, 36, 36); stroke-opacity: 1;"/><g class="overlines-above"/><g class="xaxislayer-above"><path class="xtick ticks crisp" d="M0,132v5" transform="translate(85.65,0)" style="stroke: rgb(68, 68, 68); stroke-opacity: 1; stroke-width: 2px;"/><path class="xtick ticks crisp" d="M0,132v5" transform="translate(184.07,0)" style="stroke: rgb(68, 68, 68); stroke-opacity: 1; stroke-width: 2px;"/><path class="xtick ticks crisp" d="M0,132v5" transform="translate(282.49,0)" style="stroke: rgb(68, 68, 68); stroke-opacity: 1; stroke-width: 2px;"/><path class="xtick ticks crisp" d="M0,132v5" transform="translate(380.91,0)" style="stroke: rgb(68, 68, 68); stroke-opacity: 1; stroke-width: 2px;"/><path class="xtick ticks crisp" d="M0,132v5" transform="translate(479.32,0)" style="stroke: rgb(68, 68, 68); stroke-opacity: 1; stroke-width: 2px;"/><g class="xtick"><text text-anchor="middle" x="0" y="153.8" transform="translate(85.65,0)" style="font-family: Arial; font-size: 14px; fill: rgb(36, 36, 36); fill-opacity: 1; white-space: pre; opacity: 1;">0</text></g><g class="xtick"><text text-anchor="middle" x="0" y="153.8" style="font-family: Arial; font-size: 14px; fill: rgb(36, 36, 36); fill-opacity: 1; white-space: pre; opacity: 1;" transform="translate(184.07,0)">5</text></g><g class="xtick"><text text-anchor="middle" x="0" y="153.8" style="font-family: Arial; font-size: 14px; fill: rgb(36, 36, 36); fill-opacity: 1; white-space: pre; opacity: 1;" transform="translate(282.49,0)">10</text></g><g class="xtick"><text text-anchor="middle" x="0" y="153.8" style="font-family: Arial; font-size: 14px; fill: rgb(36, 36, 36); fill-opacity: 1; white-space: pre; opacity: 1;" transform="translate(380.91,0)">15</text></g><g class="xtick"><text text-anchor="middle" x="0" y="153.8" style="font-family: Arial; font-size: 14px; fill: rgb(36, 36, 36); fill-opacity: 1; white-space: pre; opacity: 1;" transform="translate(479.32,0)">20</text></g></g><g class="yaxislayer-above"><path class="ytick ticks crisp" d="M55,0h-5" transform="translate(0,126.3)" style="stroke: rgb(68, 68, 68); stroke-opacity: 1; stroke-width: 2px;"/><path class="ytick ticks crisp" d="M55,0h-5" transform="translate(0,92.32)" style="stroke: rgb(68, 68, 68); stroke-opacity: 1; stroke-width: 2px;"/><path class="ytick ticks crisp" d="M55,0h-5" transform="translate(0,58.34)" style="stroke: rgb(68, 68, 68); stroke-opacity: 1; stroke-width: 2px;"/><path class="ytick ticks crisp" d="M55,0h-5" transform="translate(0,24.36)" style="stroke: rgb(68, 68, 68); stroke-opacity: 1; stroke-width: 2px;"/><g class="ytick"><text text-anchor="end" x="47.2" y="4.8999999999999995" transform="translate(0,126.3)" style="font-family: Arial; font-size: 14px; fill: rgb(36, 36, 36); fill-opacity: 1; white-space: pre; opacity: 1;">7</text></g><g class="ytick"><text text-anchor="end" x="47.2" y="4.8999999999999995" style="font-family: Arial; font-size: 14px; fill: rgb(36, 36, 36); fill-opacity: 1; white-space: pre; opacity: 1;" transform="translate(0,92.32)">8</text></g><g class="ytick"><text text-anchor="end" x="47.2" y="4.8999999999999995" style="font-family: Arial; font-size: 14px; fill: rgb(36, 36, 36); fill-opacity: 1; white-space: pre; opacity: 1;" transform="translate(0,58.34)">9</text></g><g class="ytick"><text text-anchor="end" x="47.2" y="4.8999999999999995" style="font-family: Arial; font-size: 14px; fill: rgb(36, 36, 36); fill-opacity: 1; white-space: pre; opacity: 1;" transform="translate(0,24.36)">10</text></g></g><g class="overaxes-above"/></g></g><g class="polarlayer"/><g class="smithlayer"/><g class="ternarylayer"/><g class="geolayer"/><g class="funnelarealayer"/><g class="pielayer"/><g class="iciclelayer"/><g class="treemaplayer"/><g class="sunburstlayer"/><g class="glimages"/><defs id="topdefs-e06b6f"><g class="clips"/><clipPath id="legende06b6f"><rect width="110" height="53" x="0" y="0"/></clipPath></defs><g class="layer-above"><g class="imagelayer"/><g class="shapelayer"/></g><g class="infolayer"><g class="legend" pointer-events="all" transform="translate(405.59999999999997,74.8)"><rect class="bg" shape-rendering="crispEdges" width="110" height="53" x="0" y="0" style="stroke: rgb(68, 68, 68); stroke-opacity: 1; fill: rgb(255, 255, 255); fill-opacity: 1; stroke-width: 0px;"/><g class="scrollbox" transform="" clip-path="url(#legende06b6f)"><g class="groups"><g class="traces" transform="translate(0,15.6)" style="opacity: 1;"><text class="legendtext" text-anchor="start" x="40" y="5.46" style="font-family: Arial; font-size: 14px; fill: rgb(36, 36, 36); fill-opacity: 1; white-space: pre;">Reference</text><g class="layers" style="opacity: 1;"><g class="legendfill"/><g class="legendlines"/><g class="legendsymbols"><g class="legendpoints"><path class="scatterpts" transform="translate(20,0)" d="M3,0A3,3 0 1,1 0,-3A3,3 0 0,1 3,0Z" style="opacity: 1; stroke-width: 1px; fill: rgb(0, 0, 0); fill-opacity: 1; stroke: rgb(0, 0, 0); stroke-opacity: 1;"/></g></g></g><rect class="legendtoggle" x="0" y="-10.6" width="104.8125" height="21.2" style="fill: rgb(0, 0, 0); fill-opacity: 0;"/></g><g class="traces" transform="translate(0,36.8)" style="opacity: 1;"><text class="legendtext" text-anchor="start" x="40" y="5.46" style="font-family: Arial; font-size: 14px; fill: rgb(36, 36, 36); fill-opacity: 1; white-space: pre;">Controller</text><g class="layers" style="opacity: 1;"><g class="legendfill"/><g class="legendlines"><path class="js-line" d="M5,0h30" style="fill: none; stroke: rgb(49, 99, 149); stroke-opacity: 1; stroke-width: 2px;"/></g><g class="legendsymbols"><g class="legendpoints"/></g></g><rect class="legendtoggle" x="0" y="-10.6" width="104.8125" height="21.2" style="fill: rgb(0, 0, 0); fill-opacity: 0;"/></g></g></g><rect class="scrollbar" rx="20" ry="3" width="0" height="0" x="0" y="0" style="fill: rgb(128, 139, 164); fill-opacity: 1;"/></g><g class="g-gtitle"/><g class="g-xtitle"><text class="xtitle" x="306" y="177.7125" text-anchor="middle" style="opacity: 1; font-family: Arial; font-size: 17px; fill: rgb(36, 36, 36); fill-opacity: 1; white-space: pre;">Time</text></g><g class="g-ytitle"><text class="ytitle" transform="rotate(-90,16.674999999999997,75)" x="16.674999999999997" y="75" text-anchor="middle" style="opacity: 1; font-family: Arial; font-size: 17px; fill: rgb(36, 36, 36); fill-opacity: 1; white-space: pre;">pH value</text></g></g></svg>